<mxfile host="app.diagrams.net" modified="2024-04-10T16:34:44.134Z" agent="Mozilla/5.0 (Windows NT 10.0; Win64; x64) AppleWebKit/537.36 (KHTML, like Gecko) Chrome/123.0.0.0 Safari/537.36" version="24.2.3" etag="N3I6kXBrPwmmqboJ_bKB" type="google">
  <diagram name="PÃ¡gina-1" id="zSmYxpHUVcS4cxazynm0">
    <mxGraphModel>
      <root>
        <mxCell id="0" />
        <mxCell id="1" parent="0" />
      </root>
    </mxGraphModel>
  </diagram>
</mxfile>
